<svg width="30" height="30" viewBox="0 0 30 30" fill="none" xmlns="http://www.w3.org/2000/svg">
<path d="M15 27C12.1042 26.2708 9.71333 24.6092 7.8275 22.015C5.94167 19.4208 4.99917 16.5408 5 13.375V5.75L15 2L25 5.75V13.375C25 16.5417 24.0575 19.4221 22.1725 22.0163C20.2875 24.6104 17.8967 26.2717 15 27ZM15 24.375C17.0208 23.75 18.7083 22.5154 20.0625 20.6712C21.4167 18.8271 22.2083 16.77 22.4375 14.5H15V4.65625L7.5 7.46875V13.9375C7.5 14.0833 7.52083 14.2708 7.5625 14.5H15V24.375Z" fill="#9DFF3A"/>
</svg>
