<svg width="48" height="47" viewBox="0 0 48 47" fill="none" xmlns="http://www.w3.org/2000/svg">
<path d="M8.35962 8.35535C9.15246 7.44791 10.0172 6.6059 10.9454 5.8375" stroke="#9DFF3A" stroke-width="1.5" stroke-miterlimit="10" stroke-linecap="round" stroke-linejoin="round"/>
<path d="M3.41064 18.0374C3.96197 15.6408 4.90644 13.3521 6.20571 11.2642" stroke="#9DFF3A" stroke-width="1.5" stroke-miterlimit="10" stroke-linecap="round" stroke-linejoin="round"/>
<path d="M10.8063 40.2202C5.93714 36.1228 2.84058 29.9683 2.84058 23.0869C2.84058 22.8256 2.84508 22.5652 2.85389 22.3061" stroke="#9DFF3A" stroke-width="1.5" stroke-miterlimit="10" stroke-linecap="round" stroke-linejoin="round"/>
<path d="M35.8402 42.6308C32.6494 44.4104 28.9769 45.4238 25.0689 45.4238C21.1743 45.4238 17.5136 44.4173 14.3304 42.6489" stroke="#9DFF3A" stroke-width="1.5" stroke-miterlimit="10" stroke-linecap="round" stroke-linejoin="round"/>
<path d="M43.9174 11.2406C46.0591 14.6744 47.2974 18.7353 47.2974 23.0868C47.2974 29.9581 44.2099 36.1047 39.3529 40.2021" stroke="#9DFF3A" stroke-width="1.5" stroke-miterlimit="10" stroke-linecap="round" stroke-linejoin="round"/>
<path d="M38.9951 5.67615C39.8177 6.34145 40.5921 7.06417 41.3125 7.83887" stroke="#9DFF3A" stroke-width="1.5" stroke-miterlimit="10" stroke-linecap="round" stroke-linejoin="round"/>
<path d="M14.4697 3.44836C17.6203 1.72758 21.2313 0.750052 25.0694 0.750052C28.809 0.750052 32.3329 1.67808 35.4256 3.3174" stroke="#9DFF3A" stroke-width="1.5" stroke-miterlimit="10" stroke-linecap="round" stroke-linejoin="round"/>
<path d="M26.9298 8.55835C29.4334 7.00032 32.1913 5.77576 35.1552 4.95835" stroke="#9DFF3A" stroke-width="1.5" stroke-miterlimit="10" stroke-linecap="round" stroke-linejoin="round"/>
<path d="M17.8226 17.1716C19.4299 14.8895 21.3321 12.8301 23.4797 11.047" stroke="#9DFF3A" stroke-width="1.5" stroke-miterlimit="10" stroke-linecap="round" stroke-linejoin="round"/>
<path d="M12.2633 39.2883C11.4631 32.7465 12.7282 26.3611 15.5858 20.8508" stroke="#9DFF3A" stroke-width="1.5" stroke-miterlimit="10" stroke-linecap="round" stroke-linejoin="round"/>
<path d="M23.2073 8.55847C20.6191 6.94775 17.759 5.69347 14.6807 4.87691" stroke="#9DFF3A" stroke-width="1.5" stroke-miterlimit="10" stroke-linecap="round" stroke-linejoin="round"/>
<path d="M35.3701 22.5507C33.3927 18.1118 30.4136 14.1629 26.6586 11.0471" stroke="#9DFF3A" stroke-width="1.5" stroke-miterlimit="10" stroke-linecap="round" stroke-linejoin="round"/>
<path d="M37.7716 30.803C37.5603 29.3752 37.2516 27.9636 36.8477 26.5779" stroke="#9DFF3A" stroke-width="1.5" stroke-miterlimit="10" stroke-linecap="round" stroke-linejoin="round"/>
<path d="M37.8617 39.3948C38.0479 37.9133 38.13 36.4206 38.1071 34.9277" stroke="#9DFF3A" stroke-width="1.5" stroke-miterlimit="10" stroke-linecap="round" stroke-linejoin="round"/>
<path d="M14.6128 18.5636C11.4107 18.5473 8.1603 18.8909 4.91187 19.6239" stroke="#9DFF3A" stroke-width="1.5" stroke-miterlimit="10" stroke-linecap="round" stroke-linejoin="round"/>
<path d="M34.3258 23.486C29.5586 20.9868 24.321 19.3735 18.8723 18.7986" stroke="#9DFF3A" stroke-width="1.5" stroke-miterlimit="10" stroke-linecap="round" stroke-linejoin="round"/>
<path d="M45.5027 31.8922C43.2483 29.5387 40.7357 27.447 38.0123 25.6568" stroke="#9DFF3A" stroke-width="1.5" stroke-miterlimit="10" stroke-linecap="round" stroke-linejoin="round"/>
<path d="M37.2582 22.674C39.3881 19.2454 41.0273 15.5353 42.1278 11.652" stroke="#9DFF3A" stroke-width="1.5" stroke-miterlimit="10" stroke-linecap="round" stroke-linejoin="round"/>
<path d="M14.6124 40.7686C22.6485 37.9971 29.6808 32.8943 34.8279 26.1871" stroke="#9DFF3A" stroke-width="1.5" stroke-miterlimit="10" stroke-linecap="round" stroke-linejoin="round"/>
<path d="M25.0684 11.7606C23.8897 11.7606 22.9308 10.7971 22.9308 9.61253C22.9308 8.42809 23.8897 7.46453 25.0684 7.46453C26.2471 7.46453 27.206 8.42809 27.206 9.61253C27.206 10.7971 26.2471 11.7606 25.0684 11.7606Z" stroke="#9DFF3A" stroke-width="1.5" stroke-miterlimit="10" stroke-linecap="round" stroke-linejoin="round"/>
<path d="M16.75 21.1987C15.5713 21.1987 14.6124 20.2351 14.6124 19.0506C14.6124 17.8662 15.5713 16.9025 16.75 16.9025C17.9287 16.9025 18.8876 17.8662 18.8876 19.0506C18.8876 20.2351 17.9287 21.1987 16.75 21.1987Z" stroke="#9DFF3A" stroke-width="1.5" stroke-miterlimit="10" stroke-linecap="round" stroke-linejoin="round"/>
<path d="M36.1912 26.6819C35.0125 26.6819 34.0536 25.7182 34.0536 24.5338C34.0536 23.3494 35.0125 22.3857 36.1912 22.3857C37.3699 22.3857 38.3288 23.3494 38.3288 24.5338C38.3288 25.7182 37.3699 26.6819 36.1912 26.6819Z" stroke="#9DFF3A" stroke-width="1.5" stroke-miterlimit="10" stroke-linecap="round" stroke-linejoin="round"/>
<path d="M12.5833 43.5602C11.4046 43.5602 10.4457 42.5966 10.4457 41.4121C10.4457 40.2276 11.4046 39.2641 12.5833 39.2641C13.762 39.2641 14.721 40.2276 14.721 41.4121C14.721 42.5966 13.762 43.5602 12.5833 43.5602Z" stroke="#9DFF3A" stroke-width="1.5" stroke-miterlimit="10" stroke-linecap="round" stroke-linejoin="round"/>
<path d="M37.6773 43.6826C36.4985 43.6826 35.5397 42.719 35.5397 41.5345C35.5397 40.3501 36.4985 39.3864 37.6773 39.3864C38.856 39.3864 39.815 40.3501 39.815 41.5345C39.815 42.719 38.856 43.6826 37.6773 43.6826Z" stroke="#9DFF3A" stroke-width="1.5" stroke-miterlimit="10" stroke-linecap="round" stroke-linejoin="round"/>
<path d="M42.6612 11.652C41.4825 11.652 40.5236 10.6883 40.5236 9.50388C40.5236 8.31945 41.4825 7.35579 42.6612 7.35579C43.84 7.35579 44.7988 8.31945 44.7988 9.50388C44.7988 10.6883 43.84 11.652 42.6612 11.652Z" stroke="#9DFF3A" stroke-width="1.5" stroke-miterlimit="10" stroke-linecap="round" stroke-linejoin="round"/>
<path d="M37.2345 6.60754C36.0558 6.60754 35.0969 5.64398 35.0969 4.45945C35.0969 3.27501 36.0558 2.31145 37.2345 2.31145C38.4132 2.31145 39.3722 3.27501 39.3722 4.45945C39.3722 5.64398 38.4132 6.60754 37.2345 6.60754Z" stroke="#9DFF3A" stroke-width="1.5" stroke-miterlimit="10" stroke-linecap="round" stroke-linejoin="round"/>
<path d="M12.5833 6.60754C11.4046 6.60754 10.4457 5.64398 10.4457 4.45945C10.4457 3.27501 11.4046 2.31145 12.5833 2.31145C13.762 2.31145 14.721 3.27501 14.721 4.45945C14.721 5.64398 13.762 6.60754 12.5833 6.60754Z" stroke="#9DFF3A" stroke-width="1.5" stroke-miterlimit="10" stroke-linecap="round" stroke-linejoin="round"/>
<path d="M2.84072 22.3055C1.662 22.3055 0.703125 21.342 0.703125 20.1574C0.703125 18.973 1.662 18.0094 2.84072 18.0094C4.01944 18.0094 4.97831 18.973 4.97831 20.1574C4.97831 21.342 4.01944 22.3055 2.84072 22.3055Z" stroke="#9DFF3A" stroke-width="1.5" stroke-miterlimit="10" stroke-linecap="round" stroke-linejoin="round"/>
</svg>
